<?xml version="1.0" standalone="yes"?>
<svg xmlns="http://www.w3.org/2000/svg" width="244" height="163">
<path style="fill:#010101; stroke:none;" d="M0 0L0 163L244 163L244 0L0 0z"/>
<path style="fill:#ecebe5; stroke:none;" d="M76 63L77 63C86.8867 15.7065 140.913 -8.87119 184 9.42824C201.788 16.9831 213.197 30.986 223 47C223.011 41.8074 218.15 36.0263 215.1 32C205.31 19.0742 191.481 9.85194 176 5.29398C134.993 -6.77966 82.1924 17.2391 76 63z"/>
<path style="fill:#ebaf3e; stroke:none;" d="M192 83L192 85C183.132 87.5351 174.21 91.1375 168.804 99C164.781 104.851 164.802 112.854 172.005 116.005C199.302 127.949 226.153 83.7519 227.501 61C228.737 40.1215 202.913 17.3394 186 9.86188C150.918 -5.64905 105.506 5.68474 85.8727 40C78.2466 53.3289 75 66.7449 75 82C75 86.1092 73.6135 94.1854 77.5139 96.9722C81.5519 99.8574 90.7874 97.9777 95 96.3812C109.038 91.0609 121.346 82.0824 135 76.0394C157.379 66.1348 171.327 74.3475 192 83z"/>
<path style="fill:#ecebe5; stroke:none;" d="M224.333 48.6667L224.667 49.3333L224.333 48.6667M225.333 50.6667L225.667 51.3333L225.333 50.6667M226.333 53.6667L226.667 54.3333L226.333 53.6667M226 67L231 68L232 56L236 56C229.422 51.8103 227.091 62.2866 226 67M227 55L227 59L228 59L227 55z"/>
<path style="fill:#9ecaf1; stroke:none;" d="M233 58L234 58L234 56L235 56L235 75L236 75L235 55L233 58z"/>
<path style="fill:#010101; stroke:none;" d="M232 56L233 57L232 56z"/>
<path style="fill:#469fed; stroke:none;" d="M234 56C226.837 81.4279 214.322 117.866 184 122.674C174.134 124.239 157.962 117.188 160.829 105C163.118 95.2658 172.011 88.9122 180 84C172.523 75.3006 156.451 74.4161 146 77.1559C122.912 83.2085 104.162 105.561 79 102.826C51.6593 99.8553 32.7539 74.0191 4 74C12.1885 84.0579 26.0339 90.8485 36 99.2747C68.871 127.067 105.111 159.658 151 159.66C192.97 159.663 225.431 129.249 233.195 89C234.975 79.7756 237.723 64.8725 234 56z"/>
<path style="fill:#9ecaf1; stroke:none;" d="M232.333 60.6667L232.667 61.3333L232.333 60.6667z"/>
<path style="fill:#010101; stroke:none;" d="M228 63L230 65L228 63z"/>
<path style="fill:#ecebe5; stroke:none;" d="M75 64L74 94L75 94L75 64z"/>
<path style="fill:#9ecaf1; stroke:none;" d="M231.333 64.6667L231.667 65.3333L231.333 64.6667z"/>
<path style="fill:#010101; stroke:none;" d="M226 67C223.301 82.6868 213.107 98.2234 202.116 109.334C198.089 113.404 192.681 115.702 189 120C212.042 115.893 222.679 87.0054 230 68L226 67z"/>
<path style="fill:#ecebe5; stroke:none;" d="M225 68L225 71L226 71L225 68z"/>
<path style="fill:#9ecaf1; stroke:none;" d="M230 68L231 69L230 68z"/>
<path style="fill:#ecebe5; stroke:none;" d="M229 69L228 73L229 73L229 69M155 70L155 71L159 71L155 70M148 71L148 72L154 72L148 71M160 71L160 72L175 75L160 71M224.333 71.6667L224.667 72.3333L224.333 71.6667z"/>
<path style="fill:#9ecaf1; stroke:none;" d="M229 71L230 72L229 71z"/>
<path style="fill:#ecebe5; stroke:none;" d="M144 72L144 73L148 73L144 72M3 73L3 74L6 74L3 73z"/>
<path style="fill:#9ecaf1; stroke:none;" d="M6 73L6 74L10 74L6 73z"/>
<path style="fill:#ecebe5; stroke:none;" d="M10 73L10 74L18 75L10 73M141 73L141 74L144 74L141 73z"/>
<path style="fill:#9ecaf1; stroke:none;" d="M228.333 73.6667L228.667 74.3333L228.333 73.6667M3 74L6 77L3 74M13.6667 74.3333L14.3333 74.6667L13.6667 74.3333z"/>
<path style="fill:#ecebe5; stroke:none;" d="M138.667 74.3333L139.333 74.6667L138.667 74.3333M223.333 74.6667L223.667 75.3333L223.333 74.6667M227.333 74.6667L227.667 75.3333L227.333 74.6667M3 75L4 76L3 75z"/>
<path style="fill:#9ecaf1; stroke:none;" d="M17.6667 75.3333L18.3333 75.6667L17.6667 75.3333z"/>
<path style="fill:#ecebe5; stroke:none;" d="M19.6667 75.3333L20.3333 75.6667L19.6667 75.3333M136.667 75.3333L137.333 75.6667L136.667 75.3333M148 75L148 76L152 76L148 75z"/>
<path style="fill:#9ecaf1; stroke:none;" d="M152 75L152 76L162 76L152 75z"/>
<path style="fill:#ecebe5; stroke:none;" d="M162 75L162 76L165 76L162 75M175 75L175 76L187 81L187 80L175 75M235 75L235 81L236 81L235 75M4 76L5 77L4 76z"/>
<path style="fill:#9ecaf1; stroke:none;" d="M21 76L22 77L21 76z"/>
<path style="fill:#ecebe5; stroke:none;" d="M22.6667 76.3333L23.3333 76.6667L22.6667 76.3333M130 78L130 79L136 77L130 78M144.667 76.3333L145.333 76.6667L144.667 76.3333z"/>
<path style="fill:#9ecaf1; stroke:none;" d="M146 76L146 77L149 77L146 76M164 76L164 77L167 77L164 76z"/>
<path style="fill:#ecebe5; stroke:none;" d="M167.667 76.3333L168.333 76.6667L167.667 76.3333M222 76L222 79L223 79L222 76z"/>
<path style="fill:#9ecaf1; stroke:none;" d="M227.333 76.6667L227.667 77.3333L227.333 76.6667z"/>
<path style="fill:#ecebe5; stroke:none;" d="M6 77L8 79L6 77z"/>
<path style="fill:#9ecaf1; stroke:none;" d="M7 77L8 78L7 77M24 77L25 78L24 77z"/>
<path style="fill:#ecebe5; stroke:none;" d="M25 77L26 78L25 77M142 77L143 78L142 77z"/>
<path style="fill:#9ecaf1; stroke:none;" d="M143.667 77.3333L144.333 77.6667L143.667 77.3333M168.667 77.3333L169.333 77.6667L168.667 77.3333z"/>
<path style="fill:#ecebe5; stroke:none;" d="M170 77L171 78L170 77z"/>
<path style="fill:#9ecaf1; stroke:none;" d="M8 78L9 79L8 78M26 78L27 79L26 78z"/>
<path style="fill:#ecebe5; stroke:none;" d="M27.6667 78.3333L28.3333 78.6667L27.6667 78.3333M136 79L136 80L140 79L136 79z"/>
<path style="fill:#9ecaf1; stroke:none;" d="M140.667 78.3333L141.333 78.6667L140.667 78.3333M171.667 78.3333L172.333 78.6667L171.667 78.3333z"/>
<path style="fill:#ecebe5; stroke:none;" d="M173 78L173 79L181 84C167.902 89.6572 160.49 106.474 170 118L178 120L178 121L175 121L175 122L187 120L187 121L185 121L185 122L191 121L191 120L189 119L199 112C193.1 114.144 187.544 117.916 181 117.739C171.759 117.49 162.224 110.736 168.148 101C174.057 91.288 186.611 91.2208 192 83L183 87C181.27 81.7348 178.257 79.548 173 78M226 78L225 81L226 81L226 78z"/>
<path style="fill:#9ecaf1; stroke:none;" d="M9 79L10 80L9 79M28.6667 79.3333L29.3333 79.6667L28.6667 79.3333z"/>
<path style="fill:#ecebe5; stroke:none;" d="M30 79L31 80L30 79M126 80L126 81L130 80L126 80z"/>
<path style="fill:#9ecaf1; stroke:none;" d="M138 79L139 80L138 79M174 79L175 80L174 79z"/>
<path style="fill:#ecebe5; stroke:none;" d="M221.333 79.6667L221.667 80.3333L221.333 79.6667z"/>
<path style="fill:#9ecaf1; stroke:none;" d="M226 79L227 80L226 79z"/>
<path style="fill:#ecebe5; stroke:none;" d="M10 80L12 82L10 80z"/>
<path style="fill:#9ecaf1; stroke:none;" d="M11 80L12 81L11 80M31 80L32 81L31 80z"/>
<path style="fill:#ecebe5; stroke:none;" d="M32 80L33 81L32 80M134 80L132 81L132 82L134 80z"/>
<path style="fill:#9ecaf1; stroke:none;" d="M135.667 80.3333L136.333 80.6667L135.667 80.3333M176 80L177 81L176 80M234 80L234 84L235 84L234 80M12 81L13 82L12 81M33 81L34 82L33 81z"/>
<path style="fill:#ecebe5; stroke:none;" d="M34 81L35 82L34 81M121 83L121 84L126 82L121 83z"/>
<path style="fill:#9ecaf1; stroke:none;" d="M134 81L135 82L134 81M178 81L179 82L178 81z"/>
<path style="fill:#ecebe5; stroke:none;" d="M187 81L187 82L191 83L191 82L187 81M220.333 81.6667L220.667 82.3333L220.333 81.6667z"/>
<path style="fill:#9ecaf1; stroke:none;" d="M225 81L226 82L225 81z"/>
<path style="fill:#ecebe5; stroke:none;" d="M13 82L15 84L13 82z"/>
<path style="fill:#9ecaf1; stroke:none;" d="M14 82L15 83L14 82M35 82L36 83L35 82z"/>
<path style="fill:#ecebe5; stroke:none;" d="M36 82L37 83L36 82M130 82L131 83L130 82z"/>
<path style="fill:#9ecaf1; stroke:none;" d="M131.667 82.3333L132.333 82.6667L131.667 82.3333M179 82L180 83L179 82z"/>
<path style="fill:#ecebe5; stroke:none;" d="M224 82L225 83L224 82z"/>
<path style="fill:#9ecaf1; stroke:none;" d="M15 83L16 84L15 83M37 83L38 84L37 83z"/>
<path style="fill:#ecebe5; stroke:none;" d="M38 83L39 84L38 83M128 83L123 86L123 87L129 84L128 83z"/>
<path style="fill:#9ecaf1; stroke:none;" d="M129.667 83.3333L130.333 83.6667L129.667 83.3333M180 83L181 84L180 83z"/>
<path style="fill:#ecebe5; stroke:none;" d="M219 83L218 87L219 87L219 83z"/>
<path style="fill:#9ecaf1; stroke:none;" d="M224.333 83.6667L224.667 84.3333L224.333 83.6667z"/>
<path style="fill:#ecebe5; stroke:none;" d="M16 84L20 87L20 86L16 84z"/>
<path style="fill:#9ecaf1; stroke:none;" d="M17 84L18 85L17 84M39 84L41 86L39 84z"/>
<path style="fill:#ecebe5; stroke:none;" d="M40 84L41 85L40 84M119.667 84.3333L120.333 84.6667L119.667 84.3333z"/>
<path style="fill:#9ecaf1; stroke:none;" d="M128 84L129 85L128 84M179 84L180 85L179 84z"/>
<path style="fill:#ecebe5; stroke:none;" d="M223.333 84.6667L223.667 85.3333L223.333 84.6667M234 84L234 88L235 88L234 84z"/>
<path style="fill:#9ecaf1; stroke:none;" d="M18 85L19 86L18 85z"/>
<path style="fill:#ecebe5; stroke:none;" d="M41 85L41 86L44 87L41 85M117.667 85.3333L118.333 85.6667L117.667 85.3333z"/>
<path style="fill:#9ecaf1; stroke:none;" d="M126 85L127 86L126 85M177 85L178 86L177 85M42 86L43 87L42 86z"/>
<path style="fill:#ecebe5; stroke:none;" d="M115.667 86.3333L116.333 86.6667L115.667 86.3333z"/>
<path style="fill:#9ecaf1; stroke:none;" d="M124 86L125 87L124 86M175 86L176 87L175 86z"/>
<path style="fill:#ecebe5; stroke:none;" d="M222 86L223 87L222 86M20 87L23 90L20 87z"/>
<path style="fill:#9ecaf1; stroke:none;" d="M21 87L22 88L21 87M44 87L45 88L44 87z"/>
<path style="fill:#ecebe5; stroke:none;" d="M45 87L46 88L45 87M109 89L109 90L115 88L109 89M121 87L118 89L118 90L122 88L121 87z"/>
<path style="fill:#9ecaf1; stroke:none;" d="M122 87L123 88L122 87M174 87L175 88L174 87z"/>
<path style="fill:#ecebe5; stroke:none;" d="M217.333 87.6667L217.667 88.3333L217.333 87.6667z"/>
<path style="fill:#9ecaf1; stroke:none;" d="M222.333 87.6667L222.667 88.3333L222.333 87.6667M233 87L233 90L234 90L233 87M22 88L23 89L22 88M46 88L46 89L50 91L50 90L46 88z"/>
<path style="fill:#ecebe5; stroke:none;" d="M47 88L48 89L47 88z"/>
<path style="fill:#9ecaf1; stroke:none;" d="M121 88L122 89L121 88M172 88L173 89L172 88z"/>
<path style="fill:#ecebe5; stroke:none;" d="M221 88L220 91L221 88z"/>
<path style="fill:#9ecaf1; stroke:none;" d="M23 89L24 90L23 89z"/>
<path style="fill:#ecebe5; stroke:none;" d="M49 89L50 90L49 89z"/>
<path style="fill:#9ecaf1; stroke:none;" d="M119 89L120 90L119 89M171 89L170 91L171 89z"/>
<path style="fill:#ecebe5; stroke:none;" d="M216.333 89.6667L216.667 90.3333L216.333 89.6667M24 90L25 91L24 90M50 90L51 91L50 90M76 97C82.9841 106.895 101.647 95.2917 109 91L94 96.3812L76 97M116 90L117 91L116 90z"/>
<path style="fill:#9ecaf1; stroke:none;" d="M117 90L118 91L117 90z"/>
<path style="fill:#010101; stroke:none;" d="M171 90C159.919 102.148 157.464 119.207 178 121L178 120L170 118C167.372 113.292 163.466 109.366 165.348 103.424C166.847 98.6928 172.649 95.2604 171 90z"/>
<path style="fill:#9ecaf1; stroke:none;" d="M221 90L222 91L221 90z"/>
<path style="fill:#ecebe5; stroke:none;" d="M233.333 90.6667L233.667 91.3333L233.333 90.6667M25 91L27 93L25 91z"/>
<path style="fill:#9ecaf1; stroke:none;" d="M26 91L27 92L26 91M51 91L52 92L51 91z"/>
<path style="fill:#ecebe5; stroke:none;" d="M52 91L53 92L52 91M114 91L115 92L114 91z"/>
<path style="fill:#9ecaf1; stroke:none;" d="M115.667 91.3333L116.333 91.6667L115.667 91.3333z"/>
<path style="fill:#ecebe5; stroke:none;" d="M169 91L170 92L169 91M215.333 91.6667L215.667 92.3333L215.333 91.6667z"/>
<path style="fill:#9ecaf1; stroke:none;" d="M220 91L221 92L220 91M27 92L28 93L27 92M53 92L54 93L53 92z"/>
<path style="fill:#ecebe5; stroke:none;" d="M54 92L55 93L54 92M112 92L111 94L112 92z"/>
<path style="fill:#9ecaf1; stroke:none;" d="M113.667 92.3333L114.333 92.6667L113.667 92.3333z"/>
<path style="fill:#ecebe5; stroke:none;" d="M168 92L169 93L168 92M219 92L217 96L218 96L219 92z"/>
<path style="fill:#9ecaf1; stroke:none;" d="M232.333 92.6667L232.667 93.3333L232.333 92.6667z"/>
<path style="fill:#ecebe5; stroke:none;" d="M28 93L29 94L28 93z"/>
<path style="fill:#9ecaf1; stroke:none;" d="M55 93L55 94L64 98L64 97L55 93z"/>
<path style="fill:#ecebe5; stroke:none;" d="M56 93L57 94L56 93z"/>
<path style="fill:#9ecaf1; stroke:none;" d="M112 93L113 94L112 93z"/>
<path style="fill:#ecebe5; stroke:none;" d="M167 93L168 94L167 93M214 93L215 94L214 93z"/>
<path style="fill:#9ecaf1; stroke:none;" d="M219 93L220 94L219 93z"/>
<path style="fill:#ecebe5; stroke:none;" d="M29 94L31 96L29 94z"/>
<path style="fill:#9ecaf1; stroke:none;" d="M30 94L31 95L30 94z"/>
<path style="fill:#ecebe5; stroke:none;" d="M58 94L59 95L58 94M75 94L75 97L76 97L75 94M105 96L105 97L110 95L105 96z"/>
<path style="fill:#9ecaf1; stroke:none;" d="M110 94L111 95L110 94M166 94L164 97L166 94z"/>
<path style="fill:#ecebe5; stroke:none;" d="M213 94L211 99L213 94M232 94L232 97L233 97L232 94z"/>
<path style="fill:#9ecaf1; stroke:none;" d="M31 95L32 96L31 95z"/>
<path style="fill:#ecebe5; stroke:none;" d="M60 95L61 96L60 95z"/>
<path style="fill:#9ecaf1; stroke:none;" d="M108 95L109 96L108 95z"/>
<path style="fill:#ecebe5; stroke:none;" d="M166 95L167 96L166 95z"/>
<path style="fill:#9ecaf1; stroke:none;" d="M218 95L219 96L218 95M32 96L33 97L32 96z"/>
<path style="fill:#ecebe5; stroke:none;" d="M62 96L63 97L62 96z"/>
<path style="fill:#9ecaf1; stroke:none;" d="M106 96L107 97L106 96z"/>
<path style="fill:#ecebe5; stroke:none;" d="M165 96L166 97L165 96z"/>
<path style="fill:#9ecaf1; stroke:none;" d="M217 96L218 97L217 96M231.333 96.6667L231.667 97.3333L231.333 96.6667z"/>
<path style="fill:#ecebe5; stroke:none;" d="M33 97L34 98L33 97M64 97L65 98L64 97M100 98L100 99L104 98L100 98z"/>
<path style="fill:#9ecaf1; stroke:none;" d="M104 97L105 98L104 97z"/>
<path style="fill:#ecebe5; stroke:none;" d="M164 97L161 106L162 106L164 97M216 97L215 99L216 97M34 98L38 102L34 98z"/>
<path style="fill:#9ecaf1; stroke:none;" d="M35 98L36 99L35 98M65 98L66 99L65 98z"/>
<path style="fill:#ecebe5; stroke:none;" d="M66.6667 98.3333L67.3333 98.6667L66.6667 98.3333z"/>
<path style="fill:#9ecaf1; stroke:none;" d="M102 98L103 99L102 98M163 98L164 99L163 98M216 98L217 99L216 98z"/>
<path style="fill:#ecebe5; stroke:none;" d="M231.333 98.6667L231.667 99.3333L231.333 98.6667z"/>
<path style="fill:#9ecaf1; stroke:none;" d="M36 99L37 100L36 99M67.6667 99.3333L68.3333 99.6667L67.6667 99.3333z"/>
<path style="fill:#ecebe5; stroke:none;" d="M69 99L70 100L69 99M98 99L99 100L98 99z"/>
<path style="fill:#9ecaf1; stroke:none;" d="M99.6667 99.3333L100.333 99.6667L99.6667 99.3333z"/>
<path style="fill:#ecebe5; stroke:none;" d="M210 99L211 100L210 99z"/>
<path style="fill:#9ecaf1; stroke:none;" d="M215 99L216 100L215 99M37 100L38 101L37 100M70 100L71 101L70 100z"/>
<path style="fill:#ecebe5; stroke:none;" d="M71.6667 100.333L72.3333 100.667L71.6667 100.333M95.6667 100.333L96.3333 100.667L95.6667 100.333z"/>
<path style="fill:#9ecaf1; stroke:none;" d="M97 100L98 101L97 100M162 100L163 101L162 100z"/>
<path style="fill:#ecebe5; stroke:none;" d="M209 100L207 104L209 100M214 100L213 102L214 100z"/>
<path style="fill:#9ecaf1; stroke:none;" d="M230 100L231 101L230 100M38 101L39 102L38 101M72.6667 101.333L73.3333 101.667L72.6667 101.333z"/>
<path style="fill:#ecebe5; stroke:none;" d="M74.6667 101.333L75.3333 101.667L74.6667 101.333M91 101L91 102L94 102L91 101z"/>
<path style="fill:#9ecaf1; stroke:none;" d="M94.6667 101.333L95.3333 101.667L94.6667 101.333M214 101L215 102L214 101z"/>
<path style="fill:#ecebe5; stroke:none;" d="M230.333 101.667L230.667 102.333L230.333 101.667M39 102L40 103L39 102z"/>
<path style="fill:#9ecaf1; stroke:none;" d="M76 102L76 103L79 103L76 102z"/>
<path style="fill:#ecebe5; stroke:none;" d="M79 102L79 103L89 103L79 102z"/>
<path style="fill:#9ecaf1; stroke:none;" d="M89 102L89 103L93 103L89 102M161 102L162 103L161 102M213 102L214 103L213 102z"/>
<path style="fill:#ecebe5; stroke:none;" d="M40 103L41 104L40 103z"/>
<path style="fill:#9ecaf1; stroke:none;" d="M212 103L213 104L212 103M229 103L230 104L229 103z"/>
<path style="fill:#ecebe5; stroke:none;" d="M41 104L44 107L41 104z"/>
<path style="fill:#9ecaf1; stroke:none;" d="M42 104L43 105L42 104z"/>
<path style="fill:#ecebe5; stroke:none;" d="M206 104L207 105L206 104M211 104L208 108L211 104M229.333 104.667L229.667 105.333L229.333 104.667z"/>
<path style="fill:#9ecaf1; stroke:none;" d="M43 105L44 106L43 105M160 105L160 110L161 110L160 105z"/>
<path style="fill:#ecebe5; stroke:none;" d="M205 105L206 106L205 105z"/>
<path style="fill:#9ecaf1; stroke:none;" d="M211 105L212 106L211 105M44 106L45 107L44 106z"/>
<path style="fill:#ecebe5; stroke:none;" d="M204 106L205 107L204 106z"/>
<path style="fill:#9ecaf1; stroke:none;" d="M210 106L211 107L210 106M228 106L229 107L228 106M45 107L46 108L45 107z"/>
<path style="fill:#ecebe5; stroke:none;" d="M203 107L202 109L204 109L203 107z"/>
<path style="fill:#9ecaf1; stroke:none;" d="M209 107L210 108L209 107z"/>
<path style="fill:#ecebe5; stroke:none;" d="M228 107L227 111L228 111L228 107M46 108L50 112L46 108z"/>
<path style="fill:#9ecaf1; stroke:none;" d="M47 108L48 109L47 108M208 108L209 109L208 108M227 108L228 109L227 108M48 109L49 110L48 109z"/>
<path style="fill:#ecebe5; stroke:none;" d="M161.333 109.667L161.667 110.333L161.333 109.667M201 109L202 110L201 109z"/>
<path style="fill:#9ecaf1; stroke:none;" d="M207 109L208 110L207 109M49 110L50 111L49 110z"/>
<path style="fill:#ecebe5; stroke:none;" d="M200 110L199 112L201 112L200 110M205 110L206 111L205 110z"/>
<path style="fill:#9ecaf1; stroke:none;" d="M206 110L207 111L206 110M50 111L51 112L50 111M161.333 111.667L161.667 112.333L161.333 111.667M205 111L206 112L205 111M226 111L227 112L226 111z"/>
<path style="fill:#ecebe5; stroke:none;" d="M51 112L52 113L51 112M162.333 112.667L162.667 113.333L162.333 112.667z"/>
<path style="fill:#9ecaf1; stroke:none;" d="M204 112L205 113L204 112z"/>
<path style="fill:#ecebe5; stroke:none;" d="M226 112L227 113L226 112M52 113L53 114L52 113M202 113L200 116L202 113z"/>
<path style="fill:#9ecaf1; stroke:none;" d="M203 113L204 114L203 113M225 113L226 114L225 113z"/>
<path style="fill:#ecebe5; stroke:none;" d="M53 114L56 117L53 114z"/>
<path style="fill:#9ecaf1; stroke:none;" d="M54 114L55 115L54 114M162 114L163 115L162 114M202 114L203 115L202 114z"/>
<path style="fill:#ecebe5; stroke:none;" d="M225 114L226 115L225 114z"/>
<path style="fill:#9ecaf1; stroke:none;" d="M55 115L56 116L55 115z"/>
<path style="fill:#ecebe5; stroke:none;" d="M163 115L166 118L163 115z"/>
<path style="fill:#9ecaf1; stroke:none;" d="M201 115L202 116L201 115M224 115L225 116L224 115M56 116L57 117L56 116M163 116L164 117L163 116z"/>
<path style="fill:#ecebe5; stroke:none;" d="M198 116L192 119L192 120L199 117L198 116z"/>
<path style="fill:#9ecaf1; stroke:none;" d="M199 116L200 117L199 116z"/>
<path style="fill:#ecebe5; stroke:none;" d="M224 116L225 117L224 116z"/>
<path style="fill:#9ecaf1; stroke:none;" d="M57 117L58 118L57 117M164 117L165 118L164 117M198 117L199 118L198 117M223 117L222 119L223 117z"/>
<path style="fill:#ecebe5; stroke:none;" d="M58 118L62 122L58 118z"/>
<path style="fill:#9ecaf1; stroke:none;" d="M59 118L60 119L59 118M166 118L167 119L166 118z"/>
<path style="fill:#ecebe5; stroke:none;" d="M167 118L168 119L167 118z"/>
<path style="fill:#9ecaf1; stroke:none;" d="M196 118L197 119L196 118z"/>
<path style="fill:#ecebe5; stroke:none;" d="M223 118L224 119L223 118z"/>
<path style="fill:#9ecaf1; stroke:none;" d="M60 119L61 120L60 119M168 119L169 120L168 119z"/>
<path style="fill:#ecebe5; stroke:none;" d="M169.667 119.333L170.333 119.667L169.667 119.333z"/>
<path style="fill:#9ecaf1; stroke:none;" d="M194 119L195 120L194 119z"/>
<path style="fill:#ecebe5; stroke:none;" d="M222 119L221 122L222 119z"/>
<path style="fill:#9ecaf1; stroke:none;" d="M61 120L62 121L61 120M170.667 120.333L171.333 120.667L170.667 120.333z"/>
<path style="fill:#ecebe5; stroke:none;" d="M172.667 120.333L173.333 120.667L172.667 120.333z"/>
<path style="fill:#010101; stroke:none;" d="M178 121L178 122L187 121L178 121z"/>
<path style="fill:#9ecaf1; stroke:none;" d="M191.667 120.333L192.333 120.667L191.667 120.333M221 120L222 121L221 120M62 121L63 122L62 121M173.667 121.333L174.333 121.667L173.667 121.333M187.667 121.333L188.333 121.667L187.667 121.333z"/>
<path style="fill:#ecebe5; stroke:none;" d="M63 122L64 123L63 122z"/>
<path style="fill:#9ecaf1; stroke:none;" d="M176 122L176 123L179 123L176 122z"/>
<path style="fill:#ecebe5; stroke:none;" d="M179 122L179 123L183 123L179 122z"/>
<path style="fill:#9ecaf1; stroke:none;" d="M183 122L183 123L186 123L183 122M220 122L219 124L220 122z"/>
<path style="fill:#ecebe5; stroke:none;" d="M64 123L66 125L64 123z"/>
<path style="fill:#9ecaf1; stroke:none;" d="M65 123L66 124L65 123z"/>
<path style="fill:#ecebe5; stroke:none;" d="M220 123L221 124L220 123z"/>
<path style="fill:#9ecaf1; stroke:none;" d="M66 124L67 125L66 124z"/>
<path style="fill:#ecebe5; stroke:none;" d="M219 124L220 125L219 124M67 125L68 126L67 125z"/>
<path style="fill:#9ecaf1; stroke:none;" d="M218 125L217 127L218 125z"/>
<path style="fill:#ecebe5; stroke:none;" d="M68 126L70 128L68 126z"/>
<path style="fill:#9ecaf1; stroke:none;" d="M69 126L70 127L69 126z"/>
<path style="fill:#ecebe5; stroke:none;" d="M218 126L219 127L218 126z"/>
<path style="fill:#9ecaf1; stroke:none;" d="M70 127L71 128L70 127z"/>
<path style="fill:#ecebe5; stroke:none;" d="M217 127L218 128L217 127z"/>
<path style="fill:#9ecaf1; stroke:none;" d="M71 128L72 129L71 128z"/>
<path style="fill:#ecebe5; stroke:none;" d="M216 128L217 129L216 128M72 129L73 130L72 129z"/>
<path style="fill:#9ecaf1; stroke:none;" d="M215 129L211 134L215 129z"/>
<path style="fill:#ecebe5; stroke:none;" d="M73 130L74 131L73 130z"/>
<path style="fill:#9ecaf1; stroke:none;" d="M74 130L75 131L74 130z"/>
<path style="fill:#ecebe5; stroke:none;" d="M215 130L216 131L215 130z"/>
<path style="fill:#9ecaf1; stroke:none;" d="M75 131L76 132L75 131z"/>
<path style="fill:#ecebe5; stroke:none;" d="M214 131L215 132L214 131M76 132L78 134L76 132z"/>
<path style="fill:#9ecaf1; stroke:none;" d="M77 132L78 133L77 132z"/>
<path style="fill:#ecebe5; stroke:none;" d="M213 132L214 133L213 132z"/>
<path style="fill:#9ecaf1; stroke:none;" d="M78 133L79 134L78 133z"/>
<path style="fill:#ecebe5; stroke:none;" d="M212 133L213 134L212 133M79 134L82 137L79 134z"/>
<path style="fill:#9ecaf1; stroke:none;" d="M80 134L81 135L80 134z"/>
<path style="fill:#ecebe5; stroke:none;" d="M211 134L212 135L211 134z"/>
<path style="fill:#9ecaf1; stroke:none;" d="M81 135L82 136L81 135z"/>
<path style="fill:#ecebe5; stroke:none;" d="M210 135L211 136L210 135z"/>
<path style="fill:#9ecaf1; stroke:none;" d="M82 136L83 137L82 136z"/>
<path style="fill:#ecebe5; stroke:none;" d="M209 136L210 137L209 136M83 137L84 138L83 137z"/>
<path style="fill:#9ecaf1; stroke:none;" d="M84 137L85 138L84 137z"/>
<path style="fill:#ecebe5; stroke:none;" d="M208 137L209 138L208 137M85 138L87 140L85 138z"/>
<path style="fill:#9ecaf1; stroke:none;" d="M86 138L87 139L86 138M206 138L203 142L206 138z"/>
<path style="fill:#ecebe5; stroke:none;" d="M207 138L208 139L207 138z"/>
<path style="fill:#9ecaf1; stroke:none;" d="M87 139L88 140L87 139z"/>
<path style="fill:#ecebe5; stroke:none;" d="M206 139L207 140L206 139M88 140L89 141L88 140z"/>
<path style="fill:#9ecaf1; stroke:none;" d="M89 140L90 141L89 140z"/>
<path style="fill:#ecebe5; stroke:none;" d="M205 140L206 141L205 140z"/>
<path style="fill:#9ecaf1; stroke:none;" d="M90 141L91 142L90 141z"/>
<path style="fill:#ecebe5; stroke:none;" d="M204 141L205 142L204 141M91 142L92 143L91 142z"/>
<path style="fill:#9ecaf1; stroke:none;" d="M92 142L93 143L92 142M202 142L203 143L202 142z"/>
<path style="fill:#ecebe5; stroke:none;" d="M93 143L94 144L93 143z"/>
<path style="fill:#9ecaf1; stroke:none;" d="M94 143L95 144L94 143M200 143L199 145L200 143z"/>
<path style="fill:#ecebe5; stroke:none;" d="M201 143L202 144L201 143M95 144L97 146L95 144z"/>
<path style="fill:#9ecaf1; stroke:none;" d="M96 144L97 145L96 144z"/>
<path style="fill:#ecebe5; stroke:none;" d="M200 144L201 145L200 144z"/>
<path style="fill:#9ecaf1; stroke:none;" d="M97 145L97 146L101 147L101 146L97 145M197 145L196 147L197 145z"/>
<path style="fill:#ecebe5; stroke:none;" d="M198 145L199 146L198 145M98 146L99 147L98 146M197 146L198 147L197 146M100 147L100 148L103 149L100 147z"/>
<path style="fill:#9ecaf1; stroke:none;" d="M102 147L103 148L102 147M194 147L193 149L194 147z"/>
<path style="fill:#ecebe5; stroke:none;" d="M195 147L196 148L195 147z"/>
<path style="fill:#9ecaf1; stroke:none;" d="M103.667 148.333L104.333 148.667L103.667 148.333z"/>
<path style="fill:#ecebe5; stroke:none;" d="M194 148L195 149L194 148M104.667 149.333L105.333 149.667L104.667 149.333z"/>
<path style="fill:#9ecaf1; stroke:none;" d="M106 149L107 150L106 149M191 149L192 150L191 149z"/>
<path style="fill:#ecebe5; stroke:none;" d="M192 149L193 150L192 149M107 150L108 151L107 150z"/>
<path style="fill:#9ecaf1; stroke:none;" d="M108 150L109 151L108 150M189 150L190 151L189 150z"/>
<path style="fill:#ecebe5; stroke:none;" d="M190 150L191 151L190 150M109 151L110 152L109 151z"/>
<path style="fill:#9ecaf1; stroke:none;" d="M110.667 151.333L111.333 151.667L110.667 151.333M187 151L188 152L187 151z"/>
<path style="fill:#ecebe5; stroke:none;" d="M188 151L189 152L188 151M111.667 152.333L112.333 152.667L111.667 152.333z"/>
<path style="fill:#9ecaf1; stroke:none;" d="M113.667 152.333L114.333 152.667L113.667 152.333M185 152L186 153L185 152z"/>
<path style="fill:#ecebe5; stroke:none;" d="M186.667 152.333L187.333 152.667L186.667 152.333M114.667 153.333L115.333 153.667L114.667 153.333z"/>
<path style="fill:#9ecaf1; stroke:none;" d="M116 153L117 154L116 153M183 153L184 154L183 153z"/>
<path style="fill:#ecebe5; stroke:none;" d="M184 153L185 154L184 153M117.667 154.333L118.333 154.667L117.667 154.333z"/>
<path style="fill:#9ecaf1; stroke:none;" d="M119 154L120 155L119 154M180.667 154.333L181.333 154.667L180.667 154.333z"/>
<path style="fill:#ecebe5; stroke:none;" d="M182 154L183 155L182 154M120.667 155.333L121.333 155.667L120.667 155.333z"/>
<path style="fill:#9ecaf1; stroke:none;" d="M122.667 155.333L123.333 155.667L122.667 155.333M177.667 155.333L178.333 155.667L177.667 155.333z"/>
<path style="fill:#ecebe5; stroke:none;" d="M179.667 155.333L180.333 155.667L179.667 155.333M123 156L123 157L126 157L123 156z"/>
<path style="fill:#9ecaf1; stroke:none;" d="M126.667 156.333L127.333 156.667L126.667 156.333M173.667 156.333L174.333 156.667L173.667 156.333z"/>
<path style="fill:#ecebe5; stroke:none;" d="M175.667 156.333L176.333 156.667L175.667 156.333M128 157L128 158L131 158L128 157z"/>
<path style="fill:#9ecaf1; stroke:none;" d="M131.667 157.333L132.333 157.667L131.667 157.333M169.667 157.333L170.333 157.667L169.667 157.333z"/>
<path style="fill:#ecebe5; stroke:none;" d="M171.667 157.333L172.333 157.667L171.667 157.333M132 158L132 159L136 159L132 158z"/>
<path style="fill:#9ecaf1; stroke:none;" d="M136 158L136 159L141 159L136 158M163 158L163 159L167 159L163 158z"/>
<path style="fill:#ecebe5; stroke:none;" d="M167.667 158.333L168.333 158.667L167.667 158.333M139 159L139 160L144 160L139 159z"/>
<path style="fill:#9ecaf1; stroke:none;" d="M144 159L144 160L149 160L144 159M153 159L153 160L160 160L153 159z"/>
<path style="fill:#ecebe5; stroke:none;" d="M160 159L160 160L164 160L160 159z"/>
</svg>
